<svg height="512pt" viewBox="0 -22 512 511" width="512pt" xmlns="http://www.w3.org/2000/svg"><path d="m7.5 8v308.730469h120.625c4.136719-4.136719 6.453125-6.457031 10.589844-10.589844v-287.550781c-4.136719-4.136719-6.453125-6.453125-10.589844-10.589844zm0 0" fill="#96d1f3"/><path d="m95.394531 264.441406c0 12.308594-9.976562 22.289063-22.289062 22.289063-12.308594 0-22.285157-9.980469-22.285157-22.289063s9.976563-22.289062 22.285157-22.289062c12.3125 0 22.289062 9.980468 22.289062 22.289062zm0 0" fill="#e5ebf5"/><path d="m70.820312 264.441406c0-8.710937 5-16.253906 12.285157-19.917968-3.007813-1.511719-6.402344-2.371094-10-2.371094-12.308594 0-22.285157 9.980468-22.285157 22.289062s9.976563 22.289063 22.285157 22.289063c3.597656 0 6.992187-.859375 10-2.371094-7.285157-3.667969-12.285157-11.207031-12.285157-19.917969zm0 0" fill="#cad8ea"/><path d="m468.683594 74.046875c5.199218-5.199219 8.113281-8.117187 13.316406-13.316406v-39.414063c-5.199219-5.203125-8.117188-8.117187-13.316406-13.316406h-297.070313l-32.898437 32.898438v255.828124h25.160156c15.777344 15.777344 24.621094 24.621094 40.394531 40.394532v110.382812c4.585938 4.582032 7.15625 7.152344 11.742188 11.738282h51.964843c13.214844-13.214844 20.625-20.621094 33.839844-33.835938v-128.253906h189.371094c5.199219-5.199219 8.113281-8.117188 13.316406-13.316406v-47.738282c-5.203125-5.199218-8.117187-8.113281-13.316406-13.316406 5.199219-5.199219 8.113281-8.113281 13.316406-13.3125v-47.738281c-5.203125-5.199219-8.117187-8.113281-13.316406-13.316407 5.199219-5.199218 8.113281-8.113281 13.316406-13.3125v-47.738281c-5.203125-5.199219-8.117187-8.117187-13.316406-13.316406zm0 0" fill="#ffdaaa"/><path d="m7.5 8h30v308.730469h-30zm0 0" fill="#3ca6e6"/><path d="m234.269531 447.503906v-110.382812c-15.773437-15.773438-24.617187-24.617188-40.394531-40.390625h-25.160156v-255.832031l32.898437-32.898438h-30l-32.898437 32.898438v255.832031h25.160156c15.773438 15.773437 24.621094 24.617187 40.394531 40.390625v110.382812c4.585938 4.582032 7.15625 7.152344 11.742188 11.738282h30c-4.585938-4.585938-7.15625-7.15625-11.742188-11.738282zm0 0" fill="#ffb680"/><path d="m93.105469 45.5h-15v-15h15zm-25 0h-15v-15h15zm0 0" fill="#fff"/><path d="m0 .5v323.730469h131.230469l14.984375-14.984375v-293.761719l-14.984375-14.984375zm131.214844 302.53125-6.195313 6.199219h-110.019531v-293.730469h110.019531l6.195313 6.195312zm0 0"/><path d="m73.105469 234.652344c-16.421875 0-29.785157 13.363281-29.785157 29.789062 0 16.425782 13.363282 29.789063 29.785157 29.789063 16.425781 0 29.789062-13.363281 29.789062-29.789063 0-16.425781-13.363281-29.789062-29.789062-29.789062zm0 44.578125c-8.152344 0-14.785157-6.636719-14.785157-14.789063 0-8.15625 6.632813-14.789062 14.785157-14.789062 8.15625 0 14.789062 6.632812 14.789062 14.789062 0 8.152344-6.632812 14.789063-14.789062 14.789063zm0 0"/><path d="m512 84.257812-17.710938-17.710937h-7.5l2.710938-2.707031v-45.628906l-17.710938-17.710938h-300.175781v15h293.964844l8.921875 8.921875v33.203125l-8.921875 8.921875h-48.097656v15h70.597656l8.921875 8.921875v41.523438l-8.921875 8.921874h-70.597656v15h70.597656l8.921875 8.925782v41.519531l-8.921875 8.925781h-70.597656v15h70.597656l8.921875 8.921875v41.523438l-8.921875 8.921875h-193.765625v132.648437l-29.441406 29.441407h-45.753906l-7.347657-7.347657v-110.378906l-40.25-40.253906-10.609375 10.609375 35.859375 35.859375v110.378906l16.132813 16.132813h58.183594l38.226562-38.230469v-123.859375h184.976562l17.710938-17.710938v-53.949218l-10.210938-10.207032 10.210938-10.210937v-53.949219l-10.210938-10.210938 10.210938-10.207031zm0 0"/></svg>