<svg height="512pt" viewBox="0 -22 512 511" width="512pt" xmlns="http://www.w3.org/2000/svg"><path d="m7.5 459.242188v-308.730469h120.625c4.136719 4.136719 6.453125 6.457031 10.589844 10.589843v287.550782c-4.136719 4.132812-6.453125 6.453125-10.589844 10.589844zm0 0" fill="#96d1f3"/><path d="m95.394531 406.953125c0 12.3125-9.976562 22.289063-22.289062 22.289063-12.308594 0-22.285157-9.976563-22.285157-22.289063 0-12.308594 9.976563-22.285156 22.285157-22.285156 12.3125 0 22.289062 9.976562 22.289062 22.285156zm0 0" fill="#e5ebf5"/><path d="m70.820312 406.953125c0-8.710937 5-16.25 12.285157-19.917969-3.007813-1.511718-6.402344-2.371094-10-2.371094-12.308594 0-22.285157 9.980469-22.285157 22.289063s9.976563 22.289063 22.285157 22.289063c3.597656 0 6.992187-.855469 10-2.371094-7.285157-3.664063-12.285157-11.203125-12.285157-19.917969zm0 0" fill="#cad8ea"/><path d="m468.683594 393.195312c5.199218 5.199219 8.113281 8.117188 13.316406 13.316407v39.414062c-5.199219 5.203125-8.117188 8.117188-13.316406 13.316407h-297.070313l-32.898437-32.898438v-255.828125h25.160156c15.777344-15.777344 24.621094-24.621094 40.394531-40.398437v-110.378907c4.585938-4.582031 7.15625-7.152343 11.742188-11.738281h51.964843c13.214844 13.214844 20.625 20.621094 33.839844 33.835938v128.253906h189.371094c5.199219 5.199218 8.113281 8.117187 13.316406 13.316406v47.738281c-5.203125 5.199219-8.117187 8.113281-13.316406 13.316407 5.199219 5.199218 8.113281 8.113281 13.316406 13.3125v47.738281c-5.203125 5.199219-8.117187 8.117187-13.316406 13.316406 5.199219 5.199219 8.113281 8.117187 13.316406 13.316406v47.734375c-5.203125 5.199219-8.117187 8.117188-13.316406 13.316406zm0 0" fill="#ffdaaa"/><path d="m7.5 150.511719h30v308.730469h-30zm0 0" fill="#3ca6e6"/><path d="m168.714844 170.511719h25.160156c15.777344-15.773438 24.621094-24.617188 40.394531-40.394531v-110.378907c4.585938-4.582031 7.15625-7.152343 11.742188-11.738281h-30c-4.585938 4.585938-7.15625 7.15625-11.742188 11.738281v110.378907c-15.773437 15.777343-24.617187 24.621093-40.394531 40.398437h-25.160156v255.828125l32.898437 32.898438h30l-32.898437-32.898438zm0 0" fill="#ffb680"/><path d="m93.105469 188.011719h-15v-15h15zm-25 0h-15v-15h15zm0 0" fill="#fff"/><path d="m0 143.011719v323.730469h131.230469l14.984375-14.984376v-293.761718l-14.984375-14.980469h-131.230469zm131.214844 302.535156-6.195313 6.195313h-110.019531v-293.730469h110.019531l6.195313 6.199219zm0 0"/><path d="m73.105469 377.167969c-16.421875 0-29.785157 13.363281-29.785157 29.785156 0 16.425781 13.363282 29.789063 29.785157 29.789063 16.425781 0 29.789062-13.363282 29.789062-29.789063s-13.363281-29.785156-29.789062-29.785156zm0 44.574219c-8.152344 0-14.785157-6.632813-14.785157-14.789063 0-8.152344 6.632813-14.789063 14.785157-14.789063 8.15625 0 14.789062 6.636719 14.789062 14.789063 0 8.15625-6.632812 14.789063-14.789062 14.789063zm0 0"/><path d="m512 180.300781-17.710938-17.710937h-184.976562v-123.859375l-38.226562-38.230469h-58.183594l-16.132813 16.132812v110.378907l-35.859375 35.859375 10.609375 10.609375 40.25-40.253907v-110.378906l7.347657-7.347656h45.753906l29.441406 29.441406v132.648438h193.765625l8.921875 8.921875v41.523437l-8.921875 8.921875h-70.597656v15h70.597656l8.921875 8.925781v41.519532l-8.921875 8.925781h-70.597656v15h70.597656l8.921875 8.921875v41.523438l-8.921875 8.921874h-70.597656v15h48.097656l8.921875 8.921876v33.203124l-8.921875 8.921876h-293.964844v15h300.175781l17.710938-17.710938v-45.628906l-2.710938-2.707032h7.5l17.710938-17.710937v-53.949219l-10.210938-10.207031 10.210938-10.210937v-53.949219l-10.210938-10.210938 10.210938-10.207031zm0 0"/></svg>